<?xml version="1.0" encoding="UTF-8"?>
<svg width="366px" height="24px" viewBox="0 0 366 24" version="1.1" xmlns="http://www.w3.org/2000/svg" xmlns:xlink="http://www.w3.org/1999/xlink">
    <!-- Generator: Sketch 42 (36781) - http://www.bohemiancoding.com/sketch -->
    <title>META TAG GENERATOR</title>
    <desc>Created with Sketch.</desc>
    <defs>
        <linearGradient x1="100%" y1="0%" x2="0%" y2="100%" id="linearGradient-1">
            <stop stop-color="#FEC180" offset="0%"></stop>
            <stop stop-color="#FF8993" offset="100%"></stop>
        </linearGradient>
    </defs>
    <g id="home" stroke="none" stroke-width="1" fill="none" fill-rule="evenodd">
        <g id="Large-Device-Desktops" transform="translate(-80.000000, -40.000000)" fill="url(#linearGradient-1)">
            <g id="header" transform="translate(0.000000, 40.000000)">
                <path d="M90.0677243,23.6810631 L84.342621,5.39003322 L84.1962405,5.39003322 C84.4022585,9.11098206 84.505266,11.5933493 84.505266,12.8372093 L84.505266,23.6810631 L80,23.6810631 L80,0.366777409 L86.8636182,0.366777409 L92.4911345,18.1953488 L92.5887215,18.1953488 L98.5577923,0.366777409 L105.42141,0.366777409 L105.42141,23.6810631 L100.720971,23.6810631 L100.720971,12.6458472 C100.720971,12.1249143 100.729103,11.5242559 100.745367,10.8438538 C100.761632,10.1634517 100.834821,8.35616085 100.964938,5.42192691 L100.818558,5.42192691 L94.6868418,23.6810631 L90.0677243,23.6810631 Z M125.101453,23.6810631 L111.406746,23.6810631 L111.406746,0.366777409 L125.101453,0.366777409 L125.101453,4.41727575 L116.44874,4.41727575 L116.44874,9.53621262 L124.499667,9.53621262 L124.499667,13.586711 L116.44874,13.586711 L116.44874,19.5986711 L125.101453,19.5986711 L125.101453,23.6810631 Z M139.235302,23.6810631 L134.193308,23.6810631 L134.193308,4.48106312 L127.736302,4.48106312 L127.736302,0.366777409 L145.692308,0.366777409 L145.692308,4.48106312 L139.235302,4.48106312 L139.235302,23.6810631 Z M161.582722,23.6810631 L159.858686,18.1315615 L151.189708,18.1315615 L149.465671,23.6810631 L144.033329,23.6810631 L152.42581,0.271096346 L158.590055,0.271096346 L167.015065,23.6810631 L161.582722,23.6810631 Z M158.655113,13.9853821 C157.061184,8.95678549 156.163935,6.11296011 155.963338,5.4538206 C155.762742,4.79468109 155.619073,4.27375607 155.532329,3.8910299 C155.174508,5.25183405 154.149855,8.61658445 152.458339,13.9853821 L158.655113,13.9853821 Z M187.833622,23.6810631 L182.791628,23.6810631 L182.791628,4.48106312 L176.334622,4.48106312 L176.334622,0.366777409 L194.290628,0.366777409 L194.290628,4.48106312 L187.833622,4.48106312 L187.833622,23.6810631 Z M210.181043,23.6810631 L208.457006,18.1315615 L199.788028,18.1315615 L198.063991,23.6810631 L192.631649,23.6810631 L201.02413,0.271096346 L207.188375,0.271096346 L215.613385,23.6810631 L210.181043,23.6810631 Z M207.253433,13.9853821 C205.659504,8.95678549 204.762255,6.11296011 204.561658,5.4538206 C204.361062,4.79468109 204.217394,4.27375607 204.130649,3.8910299 C203.772829,5.25183405 202.748175,8.61658445 201.056659,13.9853821 L207.253433,13.9853821 Z M226.966005,10.5887043 L236.399413,10.5887043 L236.399413,22.676412 C234.870543,23.165451 233.431149,23.5083047 232.081189,23.7049834 C230.731229,23.9016621 229.351471,24 227.941874,24 C224.352824,24 221.612283,22.9661233 219.720171,20.8983389 C217.828058,18.8305544 216.882016,15.8618134 216.882016,11.9920266 C216.882016,8.22855261 217.979858,5.29436268 220.175577,3.18936877 C222.371295,1.08437486 225.415436,0.0318936877 229.308092,0.0318936877 C231.747779,0.0318936877 234.100686,0.510294219 236.366884,1.46710963 L234.691641,5.42192691 C232.956753,4.57142432 231.151411,4.1461794 229.275563,4.1461794 C227.09611,4.1461794 225.350404,4.8637802 224.038395,6.29900332 C222.726385,7.73422645 222.070391,9.66377526 222.070391,12.0877076 C222.070391,14.6179529 222.598982,16.5501594 223.656179,17.8843854 C224.713377,19.2186113 226.250357,19.8857143 228.267164,19.8857143 C229.318941,19.8857143 230.386965,19.7794031 231.47127,19.5667774 L231.47127,14.70299 L226.966005,14.70299 L226.966005,10.5887043 Z M259.738968,10.5887043 L269.172377,10.5887043 L269.172377,22.676412 C267.643507,23.165451 266.204113,23.5083047 264.854153,23.7049834 C263.504193,23.9016621 262.124435,24 260.714838,24 C257.125788,24 254.385247,22.9661233 252.493134,20.8983389 C250.601022,18.8305544 249.654979,15.8618134 249.654979,11.9920266 C249.654979,8.22855261 250.752822,5.29436268 252.94854,3.18936877 C255.144258,1.08437486 258.1884,0.0318936877 262.081056,0.0318936877 C264.520743,0.0318936877 266.87365,0.510294219 269.139848,1.46710963 L267.464605,5.42192691 C265.729716,4.57142432 263.924375,4.1461794 262.048527,4.1461794 C259.869073,4.1461794 258.123368,4.8637802 256.811358,6.29900332 C255.499349,7.73422645 254.843354,9.66377526 254.843354,12.0877076 C254.843354,14.6179529 255.371945,16.5501594 256.429143,17.8843854 C257.48634,19.2186113 259.02332,19.8857143 261.040128,19.8857143 C262.091904,19.8857143 263.159929,19.7794031 264.244234,19.5667774 L264.244234,14.70299 L259.738968,14.70299 L259.738968,10.5887043 Z M288.52713,23.6810631 L274.832422,23.6810631 L274.832422,0.366777409 L288.52713,0.366777409 L288.52713,4.41727575 L279.874417,4.41727575 L279.874417,9.53621262 L287.925343,9.53621262 L287.925343,13.586711 L279.874417,13.586711 L279.874417,19.5986711 L288.52713,19.5986711 L288.52713,23.6810631 Z M314.582856,23.6810631 L308.174643,23.6810631 L297.830423,6.04385382 L297.684042,6.04385382 C297.89006,9.15881956 297.993068,11.3807243 297.993068,12.7096346 L297.993068,23.6810631 L293.487802,23.6810631 L293.487802,0.366777409 L299.84722,0.366777409 L310.175177,17.8285714 L310.289028,17.8285714 C310.126382,14.7986559 310.045061,12.6564847 310.045061,11.4019934 L310.045061,0.366777409 L314.582856,0.366777409 L314.582856,23.6810631 Z M334.262898,23.6810631 L320.568191,23.6810631 L320.568191,0.366777409 L334.262898,0.366777409 L334.262898,4.41727575 L325.610185,4.41727575 L325.610185,9.53621262 L333.661112,9.53621262 L333.661112,13.586711 L325.610185,13.586711 L325.610185,19.5986711 L334.262898,19.5986711 L334.262898,23.6810631 Z M344.265565,10.7162791 L345.892014,10.7162791 C347.485943,10.7162791 348.662397,10.4558166 349.42141,9.93488372 C350.180424,9.41395088 350.559925,8.59535442 350.559925,7.47906977 C350.559925,6.3734164 350.172292,5.5867133 349.397014,5.11893688 C348.621735,4.65116045 347.420885,4.41727575 345.794427,4.41727575 L344.265565,4.41727575 L344.265565,10.7162791 Z M344.265565,14.7348837 L344.265565,23.6810631 L339.22357,23.6810631 L339.22357,0.366777409 L346.152246,0.366777409 C349.383476,0.366777409 351.774333,0.943515827 353.32489,2.09700997 C354.875447,3.25050411 355.650713,5.00198161 355.650713,7.35149502 C355.650713,8.72293045 355.265791,9.9428518 354.495934,11.0112957 C353.726077,12.0797396 352.636367,12.9169405 351.22677,13.5229236 C354.804977,18.7641458 357.136199,22.1501585 358.220504,23.6810631 L352.625517,23.6810631 L346.949207,14.7348837 L344.265565,14.7348837 Z M375.769897,23.6810631 L374.045861,18.1315615 L365.376883,18.1315615 L363.652846,23.6810631 L358.220504,23.6810631 L366.612985,0.271096346 L372.77723,0.271096346 L381.20224,23.6810631 L375.769897,23.6810631 Z M372.842288,13.9853821 C371.248359,8.95678549 370.35111,6.11296011 370.150513,5.4538206 C369.949917,4.79468109 369.806248,4.27375607 369.719504,3.8910299 C369.361683,5.25183405 368.33703,8.61658445 366.645514,13.9853821 L372.842288,13.9853821 Z M391.042261,23.6810631 L386.000267,23.6810631 L386.000267,4.48106312 L379.543261,4.48106312 L379.543261,0.366777409 L397.499267,0.366777409 L397.499267,4.48106312 L391.042261,4.48106312 L391.042261,23.6810631 Z M422.074923,11.9920266 C422.074923,15.8511821 421.099063,18.8172654 419.147314,20.8903654 C417.195564,22.9634655 414.398098,24 410.754833,24 C407.111567,24 404.314101,22.9634655 402.362352,20.8903654 C400.410602,18.8172654 399.434742,15.840551 399.434742,11.9601329 C399.434742,8.07971482 400.413313,5.1162893 402.370484,3.06976744 C404.327655,1.02324558 407.133253,0 410.787362,0 C414.441471,0 417.236225,1.03121892 419.17171,3.09368771 C421.107195,5.15615649 422.074923,8.12223979 422.074923,11.9920266 Z M404.720704,11.9920266 C404.720704,14.5966908 405.224898,16.5581329 406.233302,17.876412 C407.241706,19.194691 408.748868,19.8538206 410.754833,19.8538206 C414.777605,19.8538206 416.788961,17.2332488 416.788961,11.9920266 C416.788961,6.74017308 414.788448,4.11428571 410.787362,4.11428571 C408.781397,4.11428571 407.268814,4.77607312 406.249567,6.09966777 C405.23032,7.42326243 404.720704,9.38736239 404.720704,11.9920266 Z M432.045061,10.7162791 L433.67151,10.7162791 C435.265439,10.7162791 436.441893,10.4558166 437.200907,9.93488372 C437.95992,9.41395088 438.339421,8.59535442 438.339421,7.47906977 C438.339421,6.3734164 437.951788,5.5867133 437.17651,5.11893688 C436.401232,4.65116045 435.200381,4.41727575 433.573923,4.41727575 L432.045061,4.41727575 L432.045061,10.7162791 Z M432.045061,14.7348837 L432.045061,23.6810631 L427.003066,23.6810631 L427.003066,0.366777409 L433.931742,0.366777409 C437.162972,0.366777409 439.55383,0.943515827 441.104386,2.09700997 C442.654943,3.25050411 443.430209,5.00198161 443.430209,7.35149502 C443.430209,8.72293045 443.045287,9.9428518 442.27543,11.0112957 C441.505573,12.0797396 440.415863,12.9169405 439.006266,13.5229236 C442.584473,18.7641458 444.915695,22.1501585 446,23.6810631 L440.405013,23.6810631 L434.728703,14.7348837 L432.045061,14.7348837 Z" id="META-TAG-GENERATOR"></path>
            </g>
        </g>
    </g>
</svg>