<?xml version="1.0" encoding="UTF-8"?>
<svg width="350px" height="60px" viewBox="0 0 350 60" version="1.1" xmlns="http://www.w3.org/2000/svg" xmlns:xlink="http://www.w3.org/1999/xlink">
    <!-- Generator: Sketch 42 (36781) - http://www.bohemiancoding.com/sketch -->
    <title>Group 2</title>
    <desc>Created with Sketch.</desc>
    <defs>
        <linearGradient x1="100%" y1="0%" x2="0%" y2="100%" id="linearGradient-1">
            <stop stop-color="#FEC180" offset="0%"></stop>
            <stop stop-color="#FF8993" offset="100%"></stop>
        </linearGradient>
        <linearGradient x1="50%" y1="0%" x2="50%" y2="100%" id="linearGradient-2">
            <stop stop-color="#D2E3E7" offset="0%"></stop>
            <stop stop-color="#ABB3B3" offset="100%"></stop>
        </linearGradient>
        <path d="M45.703125,1.02273262e-15 C54.375,1.02273262e-15 60,5.625 60,14.296875 L60,45.703125 C60,54.375 54.375,60 45.703125,60 L14.296875,60 C5.625,60 0,54.375 0,45.703125 L0,14.296875 C0,5.625 5.625,1.02273263e-15 14.296875,1.02273263e-15 L45.703125,1.02273262e-15 Z" id="path-3"></path>
        <linearGradient x1="6.123234e-15%" y1="0%" x2="100%" y2="100%" id="linearGradient-5">
            <stop stop-color="#FEC180" offset="0%"></stop>
            <stop stop-color="#FF8993" offset="100%"></stop>
        </linearGradient>
        <linearGradient x1="100%" y1="112.338464%" x2="5.39008731%" y2="-25.2652717%" id="linearGradient-6">
            <stop stop-color="#FFFFFF" offset="0%"></stop>
            <stop stop-color="#DADADA" offset="100%"></stop>
        </linearGradient>
        <path d="M42.8791389,29.4620834 L42.6233617,13.6842105 L40.0065123,18.1837323 C37.7763498,16.8819945 34.4190221,15.976012 30.5222797,15.976012 C26.620838,15.976012 23.2537759,16.8786178 21.0249561,18.1837323 L18.4487223,13.6896133 L18.1885815,28.8397481 L17.8952097,40.9386499 C17.8952097,40.9420266 17.895881,40.9454034 17.895881,40.9487801 L17.8952097,40.9747811 C17.8760767,41.7700062 18.439995,42.6928724 19.1489208,43.045743 L24.3641579,45.6485433 C25.0730837,46.0014139 26.2999416,46.3157895 27.0911055,46.3157895 L33.9615098,46.3157895 C34.7523381,46.3157895 35.9795317,46.0020892 36.6884575,45.6495563 L41.9036945,43.0386518 C42.6126204,42.6857813 43.1768743,41.7416414 43.1574057,40.9464164 L42.8791389,29.4620834 Z M38.9191099,32.0660714 L32.5970173,33.434903 L31.9675026,32.1932563 L38.8352419,28.6260388 L38.9191099,32.0660714 Z M29.0851289,32.1933429 L28.4556142,33.434903 L22.1335217,32.0661669 L22.2177265,28.6260388 L29.0851289,32.1933429 Z M40.9634692,41.3564053 L35.7812431,43.9699521 C35.3323045,44.1950471 34.408295,44.4265928 33.9550009,44.4265928 L27.0976306,44.4265928 C26.6450067,44.4265928 25.7213322,44.1947076 25.2670331,43.9668965 L20.0637002,41.3506336 C20.0301973,41.3221148 19.9484502,41.1900455 19.9293536,41.1112792 L20.0888273,34.4718246 L28.5094422,35.8159441 L30.5263158,37.8601329 L32.5783674,35.7806351 L32.5750171,35.7738449 L40.9641393,34.465374 L41.123278,41.0861554 C41.1055215,41.1649217 41.0241095,41.3027627 40.9634692,41.3564053 Z" id="path-7"></path>
        <filter x="-50%" y="-50%" width="200%" height="200%" filterUnits="objectBoundingBox" id="filter-8">
            <feGaussianBlur stdDeviation="1" in="SourceAlpha" result="shadowBlurInner1"></feGaussianBlur>
            <feOffset dx="0" dy="0" in="shadowBlurInner1" result="shadowOffsetInner1"></feOffset>
            <feComposite in="shadowOffsetInner1" in2="SourceAlpha" operator="arithmetic" k2="-1" k3="1" result="shadowInnerInner1"></feComposite>
            <feColorMatrix values="0 0 0 0 0.333419881   0 0 0 0 0.421909155   0 0 0 0 0.525085034  0 0 0 1 0" type="matrix" in="shadowInnerInner1"></feColorMatrix>
        </filter>
    </defs>
    <g id="home" stroke="none" stroke-width="1" fill="none" fill-rule="evenodd">
        <g id="Large-Device-Desktops" transform="translate(-59.000000, -22.000000)">
            <g id="header" transform="translate(0.000000, 22.000000)">
                <g id="Group-2" transform="translate(59.000000, 0.000000)">
                    <path d="M90,19 L91.4389937,19 L100.986164,35.4881356 C102.554306,32.6971612 104.13626,29.9384317 105.732075,27.2118644 C107.327891,24.4852971 108.937518,21.7480363 110.561006,19 L112,19 L112,38 L110.284277,38 L110.284277,23.0576271 L101.677987,38 L100.322013,38 L91.7157233,23.0898305 L91.7157233,38 L90,38 L90,19 Z M93.9414365,28.4387464 L100.405525,39 L103.565746,39 L110.058564,28.4074074 L110.058564,39 L115,39 L115,17 L111.035359,17 L101.956906,31.6666667 L92.9359116,17 L89,17 L89,39 L93.9414365,39 L93.9414365,28.4387464 Z M95.7851711,19.2756184 L101.973384,29.6113074 L110.243346,16 L115.23384,16 L118,19.2756184 L118,43 L111.840304,43 L108.903042,39.9151943 L108.903042,38.7385159 L106.336502,43 L102.572243,43 L99.6920152,39.9151943 L97.0969582,35.590106 L97.0969582,43 L90.9372624,43 L88,39.9151943 L88,16 L92.9619772,16 L95.7851711,19.2756184 Z M125.745185,27.5338983 L140.072593,27.5338983 L140.072593,29.4661017 L125.745185,29.4661017 L125.745185,36.0355932 L143,36.0355932 L143,38 L124,38 L124,19 L142.971852,19 L142.971852,20.9644068 L125.745185,20.9644068 L125.745185,27.5338983 Z M127.836086,22.4216524 L144.972046,22.4216524 L144.972046,17 L123,17 L123,39 L145,39 L145,33.5783476 L127.836086,33.5783476 L127.836086,30.6638177 L142.064803,30.6638177 L142.064803,25.3361823 L127.836086,25.3361823 L127.836086,22.4216524 Z M122,39.9151943 L122,16 L145.271949,16 L147.972163,19.2756184 L147.972163,26.1766784 L143.713062,26.1766784 L145.077088,27.7349823 L145.077088,32.8233216 L148,36.0989399 L148,43 L124.867238,43 L122,39.9151943 Z M163.623803,38 L163.623803,20.9644068 L154,20.9644068 L154,19 L175,19 L175,20.9644068 L165.347469,20.9644068 L165.347469,38 L163.623803,38 Z M166.411415,39 L166.411415,22.4216524 L176,22.4216524 L176,17 L152,17 L152,22.4216524 L161.560048,22.4216524 L161.560048,39 L166.411415,39 Z M152,23.0918728 L152,16 L177.251012,16 L180,19.2756184 L180,26.1766784 L170.477733,26.1766784 L170.477733,43 L164.412955,43 L161.493927,39.9151943 L161.493927,26.1766784 L154.919028,26.1766784 L152,23.0918728 Z M198,31 L192.070258,21 L186,31 L198,31 Z M195,29 L189,29 L192.028302,24 L195,29 Z M202.876557,38 L199.8188,33.0084746 L185.351076,33.0084746 C184.822572,33.8242979 184.308232,34.6562104 183.808041,35.5042373 C183.30785,36.3522641 182.79351,37.1841767 182.265006,38 L180,38 C182.000765,34.8011139 183.996781,31.6344789 185.988109,28.5 C187.979436,25.3655211 189.966015,22.1988861 191.947905,19 L193.306908,19 L205,38 L202.876557,38 Z M191.155251,17 L177,39 L183.001826,39 L186.115982,34.1424501 L198.912329,34.1424501 L201.998174,39 L208,39 L194.127854,17 L191.155251,17 Z M197.443235,19.2756184 L212,43 L204.553655,43 L201.726283,39.9151943 L200.578538,38.0706714 L189.520995,38.0706714 C189.297044,38.4522987 189.049768,38.8551216 188.77916,39.2791519 C188.508552,39.7031823 188.237948,40.1325067 187.967341,40.5671378 C187.696733,41.001769 187.430794,41.425793 187.169518,41.8392226 C186.908241,42.2526522 186.665631,42.6395742 186.44168,43 L178.967341,43 L176,39.9151943 L191.004666,16 L194.671851,16 L197.443235,19.2756184 Z M249.270191,38 L249.270191,29.4661017 L233.701909,29.4661017 L233.701909,38 L232,38 L232,19 L233.701909,19 L233.701909,27.5338983 L249.270191,27.5338983 L249.270191,19 L251,19 L251,38 L249.270191,38 Z M252,39 L252,17 L247.172762,17 L247.172762,25.3361823 L234.799496,25.3361823 L234.799496,17 L230,17 L230,39 L234.799496,39 L234.799496,30.6638177 L247.172762,30.6638177 L247.172762,39 L252,39 Z M238.191489,24.459364 L246.779787,24.459364 L246.779787,16 L253.21383,16 L256,19.2756184 L256,43 L249.738298,43 L246.779787,39.9151943 L246.779787,34.540636 L238.191489,34.540636 L238.191489,43 L231.958511,43 L229,39.9151943 L229,16 L235.405319,16 L238.191489,19.2756184 L238.191489,24.459364 Z M263.745185,27.5338983 L278.072593,27.5338983 L278.072593,29.4661017 L263.745185,29.4661017 L263.745185,36.0355932 L281,36.0355932 L281,38 L262,38 L262,19 L280.971852,19 L280.971852,20.9644068 L263.745185,20.9644068 L263.745185,27.5338983 Z M264.836086,22.4216524 L281.972046,22.4216524 L281.972046,17 L260,17 L260,39 L282,39 L282,33.5783476 L264.836086,33.5783476 L264.836086,30.6638177 L279.064803,30.6638177 L279.064803,25.3361823 L264.836086,25.3361823 L264.836086,22.4216524 Z M259,39.9151943 L259,16 L282.271949,16 L284.972163,19.2756184 L284.972163,26.1766784 L280.713062,26.1766784 L282.077088,27.7349823 L282.077088,32.8233216 L285,36.0989399 L285,43 L261.867238,43 L259,39.9151943 Z M305.813901,22 C306.047086,22 306.289984,22.0215052 306.542601,22.0645161 C306.795218,22.1075271 307.0284,22.1827952 307.242152,22.2903226 C307.455905,22.39785 307.635649,22.5483861 307.78139,22.7419355 C307.927131,22.9354848 308,23.1935468 308,23.516129 C308,23.8172058 307.922273,24.0645152 307.766816,24.2580645 C307.611359,24.4516139 307.421899,24.60215 307.19843,24.7096774 C306.974962,24.8172048 306.732064,24.8924729 306.469731,24.9354839 C306.207398,24.9784948 305.979074,25 305.784753,25 L295,25 L295,22 L305.813901,22 Z M306.208259,27 C306.667866,27 307.122679,26.946079 307.572711,26.8382353 C308.022743,26.7303916 308.429681,26.5588247 308.793537,26.3235294 C309.157393,26.0882341 309.44943,25.7794137 309.669659,25.3970588 C309.889887,25.014704 310,24.5588262 310,24.0294118 C310,23.4803894 309.894675,23.0098059 309.684022,22.6176471 C309.473368,22.2254882 309.190905,21.9117659 308.836625,21.6764706 C308.482344,21.4411753 308.080194,21.2696084 307.630162,21.1617647 C307.180129,21.053921 306.715741,21 306.236984,21 L294,21 L294,27 L306.208259,27 Z M308.380567,28.9830508 C308.116058,29.1548031 307.823213,29.2836154 307.502024,29.3694915 C307.180835,29.4553677 306.878544,29.5412425 306.595142,29.6271186 C307.653177,31.0440749 308.715919,32.4395412 309.783401,33.8135593 C310.850883,35.1875775 311.923072,36.5830438 313,38 L310.704453,38 L304.157895,29.4661017 L293.757085,29.4661017 L293.757085,38 L292,38 L292,19 L305.82996,19 C306.604592,19 307.327257,19.0966092 307.997976,19.2898305 C308.668694,19.4830518 309.244937,19.7943481 309.726721,20.2237288 C310.208504,20.6531095 310.586368,21.2005616 310.860324,21.8661017 C311.134279,22.5316417 311.271255,23.3367184 311.271255,24.2813559 C311.271255,25.4621528 311.03509,26.433612 310.562753,27.1957627 C310.090416,27.9579134 309.372474,28.5536702 308.408907,28.9830508 L308.380567,28.9830508 Z M313.399128,23.8945869 C313.399128,22.7036977 313.229009,21.6747432 312.888768,20.8076923 C312.548526,19.9406414 312.066524,19.225074 311.442748,18.6609687 C310.818972,18.0968633 310.077067,17.6790137 309.217012,17.4074074 C308.356957,17.1358011 307.40713,17 306.367503,17 L291,17 L291,39 L295.848419,39 L295.848419,30.6638177 L303.95747,30.6638177 L310.478735,39 L317,39 L309.854962,29.9430199 C312.217751,28.7939164 313.399128,26.7777922 313.399128,23.8945869 Z M290,39.9151943 L290,16 L306.125688,16 C306.865141,16 307.576143,16.0583033 308.258716,16.1749117 C308.941288,16.29152 309.62859,16.5300335 310.320642,16.8904594 C311.012695,17.2508852 311.733177,17.7703146 312.48211,18.4487633 C313.231044,19.1272119 314.032106,20.0282629 314.885321,21.1519435 C315.435171,21.7667875 315.866512,22.5883341 316.179358,23.6166078 C316.492203,24.6448815 316.648624,25.7632448 316.648624,26.9717314 C316.648624,28.3710317 316.378443,29.611302 315.838073,30.6925795 C315.297704,31.773857 314.515601,32.6537069 313.491743,33.3321555 C314.079514,34.0954102 314.695715,34.8904552 315.340367,35.7173145 C315.985019,36.5441737 316.62966,37.3763209 317.274312,38.2137809 C317.918963,39.0512409 318.558865,39.8780878 319.194037,40.6943463 C319.829208,41.5106048 320.43119,42.2791483 321,43 L312.809174,43 L309.936697,39.9151943 L305.784404,34.540636 L299.044037,34.540636 L299.044037,43 L292.929358,43 L290,39.9151943 Z M336.090498,36 C337.198598,36 338.235038,35.8664543 339.199849,35.599359 C340.16466,35.3322636 341.005275,34.9049175 341.721719,34.3173077 C342.438163,33.7296979 342.996981,32.9604748 343.39819,32.0096154 C343.799399,31.0587559 344,29.8888958 344,28.5 C344,27.1324718 343.794622,25.9679535 343.383861,25.0064103 C342.9731,24.044867 342.414282,23.2703021 341.707391,22.6826923 C341.000499,22.0950825 340.16466,21.6677364 339.199849,21.400641 C338.235038,21.1335457 337.198598,21 336.090498,21 L332.93816,21 C331.810955,21 330.764962,21.1335457 329.800151,21.400641 C328.83534,21.6677364 327.999501,22.0950825 327.292609,22.6826923 C326.585718,23.2703021 326.0269,24.044867 325.616139,25.0064103 C325.205378,25.9679535 325,27.1324718 325,28.5 C325,29.8888958 325.205378,31.0587559 325.616139,32.0096154 C326.0269,32.9604748 326.585718,33.7350397 327.292609,34.3333333 C327.999501,34.9316269 328.83534,35.3589731 329.800151,35.6153846 C330.764962,35.8717962 331.810955,36 332.93816,36 L336.090498,36 Z M332.417423,33 C331.546275,33 330.723537,32.9073043 329.949183,32.7219101 C329.17483,32.5365159 328.497281,32.23268 327.916515,31.8103933 C327.33575,31.3881065 326.871145,30.8267825 326.522686,30.1264045 C326.174227,29.4260265 326,28.5505671 326,27.5 C326,26.4700323 326.174227,25.6048724 326.522686,24.9044944 C326.871145,24.2041163 327.34059,23.6376426 327.931034,23.2050562 C328.521479,22.7724697 329.203868,22.4634841 329.978221,22.2780899 C330.752575,22.0926957 331.565634,22 332.417423,22 L335.611615,22 C336.463404,22 337.276463,22.0926957 338.050817,22.2780899 C338.82517,22.4634841 339.502719,22.7724697 340.083485,23.2050562 C340.66425,23.6376426 341.128855,24.2041163 341.477314,24.9044944 C341.825773,25.6048724 342,26.4700323 342,27.5 C342,28.5299677 341.830613,29.3951276 341.491833,30.0955056 C341.153053,30.7958837 340.693288,31.3623574 340.112523,31.7949438 C339.531758,32.2275303 338.854208,32.5365159 338.079855,32.7219101 C337.305501,32.9073043 336.482763,33 335.611615,33 L332.417423,33 Z M323,28.5 C323,26.7610083 323.237007,25.2904015 323.711027,24.0881356 C324.185047,22.8858697 324.844947,21.9036761 325.690748,21.1415254 C326.536548,20.3793747 327.540341,19.8319226 328.702155,19.4991525 C329.863969,19.1663825 331.123356,19 332.480355,19 L335.547529,19 C336.904527,19 338.159268,19.1717497 339.311787,19.5152542 C340.464307,19.8587588 341.463452,20.4062109 342.309252,21.1576271 C343.155053,21.9090433 343.814953,22.8858697 344.288973,24.0881356 C344.762993,25.2904015 345,26.7610083 345,28.5 C345,30.2389917 344.762993,31.7095985 344.288973,32.9118644 C343.814953,34.1141303 343.155053,35.0909567 342.309252,35.8423729 C341.463452,36.5937891 340.464307,37.1412412 339.311787,37.4847458 C338.159268,37.8282503 336.904527,38 335.547529,38 L332.480355,38 C331.123356,38 329.863969,37.8336175 328.702155,37.5008475 C327.540341,37.1680774 326.536548,36.6206253 325.690748,35.8584746 C324.844947,35.0963239 324.185047,34.1141303 323.711027,32.9118644 C323.237007,31.7095985 323,30.2389917 323,28.5 Z M321,28 C321,29.9848152 321.273145,31.6718829 321.819444,33.0612536 C322.365743,34.4506242 323.124995,35.5840412 324.097222,36.4615385 C325.069449,37.3390357 326.226845,37.9814794 327.569444,38.3888889 C328.912044,38.7962983 330.388881,39 332,39 L335.055556,39 C336.666675,39 338.138882,38.7962983 339.472222,38.3888889 C340.805562,37.9814794 341.958328,37.3390357 342.930556,36.4615385 C343.902783,35.5840412 344.657405,34.4506242 345.194444,33.0612536 C345.731484,31.6718829 346,29.9848152 346,28 C346,26.0151848 345.731484,24.3281171 345.194444,22.9387464 C344.657405,21.5493758 343.902783,20.4159588 342.930556,19.5384615 C341.958328,18.6609643 340.805562,18.0185206 339.472222,17.6111111 C338.138882,17.2037017 336.666675,17 335.055556,17 L332,17 C330.388881,17 328.912044,17.2037017 327.569444,17.6111111 C326.226845,18.0185206 325.069449,18.6609643 324.097222,19.5384615 C323.124995,20.4159588 322.365743,21.5493758 321.819444,22.9387464 C321.273145,24.3281171 321,26.0151848 321,28 Z M320,27.9575972 C320,25.7950422 320.296081,23.955838 320.888252,22.4399293 C321.480423,20.9240207 322.31136,19.6890507 323.381089,18.7349823 C324.450817,17.780914 325.725876,17.0865746 327.206304,16.6519435 C328.686731,16.2173123 330.305626,16 332.063037,16 L335.2149,16 C336.322833,16 337.368667,16.0689039 338.352436,16.2067138 C339.336204,16.3445237 340.30563,16.6307399 341.260745,17.065371 C342.21586,17.5000022 343.166184,18.114837 344.111748,18.909894 C345.057311,19.704951 346.036289,20.7703113 347.048711,22.1060071 C347.908314,23.0600754 348.615088,24.3215469 349.169054,25.8904594 C349.723021,27.4593718 350,29.2084709 350,31.1378092 C350,33.2791627 349.708694,35.102466 349.126074,36.6077739 C348.543455,38.1130817 347.722068,39.3374511 346.661891,40.2809187 C345.601714,41.2243863 344.340982,41.9134254 342.879656,42.3480565 C341.418331,42.7826877 339.818538,43 338.080229,43 L334.928367,43 C332.979933,43 331.165242,42.7561862 329.484241,42.2685512 C327.803239,41.7809163 326.418344,40.9434688 325.329513,39.7561837 C324.240682,38.6961078 323.352439,37.694351 322.664756,36.7508834 C321.977074,35.8074158 321.437442,34.8692626 321.045845,33.9363958 C320.654248,33.0035289 320.382045,32.0494748 320.229226,31.0742049 C320.076408,30.0989351 320,29.0600762 320,27.9575972 Z M335.690594,33 C336.398518,33 337.074667,32.9162688 337.719059,32.7488038 C338.363452,32.5813389 338.930691,32.2966527 339.420792,31.8947368 C339.910894,31.492821 340.296616,30.9625232 340.57797,30.3038278 C340.859325,29.6451323 341,28.8357305 341,27.8755981 C341,27.3397102 340.945545,26.8484871 340.836634,26.4019139 C340.092406,26.13397 339.284658,26 338.413366,26 L335.418317,26 C334.692241,26 334.002479,26.0893133 333.34901,26.2679426 C332.695541,26.4465719 332.119227,26.7368401 331.62005,27.138756 C331.120872,27.5406719 330.726074,28.0765517 330.435644,28.7464115 C330.145213,29.4162713 330,30.2424193 330,31.2248804 C330,31.7607682 330.036303,32.2073347 330.108911,32.5645933 C330.490101,32.7208939 330.898513,32.8325356 331.334158,32.8995215 C331.769804,32.9665075 332.223595,33 332.695545,33 L335.690594,33 Z" id="META-HERO" fill="url(#linearGradient-1)"></path>
                    <g id="Group">
                        <mask id="mask-4" fill="white">
                            <use xlink:href="#path-3"></use>
                        </mask>
                        <use id="App-Icon-Shape" fill="url(#linearGradient-2)" xlink:href="#path-3"></use>
                        <rect id="Background" fill="url(#linearGradient-5)" mask="url(#mask-4)" x="0" y="0" width="60" height="60"></rect>
                        <g id="Hero" mask="url(#mask-4)" fill-rule="nonzero">
                            <use fill="url(#linearGradient-6)" fill-rule="evenodd" xlink:href="#path-7"></use>
                            <use fill="black" fill-opacity="1" filter="url(#filter-8)" xlink:href="#path-7"></use>
                        </g>
                    </g>
                </g>
            </g>
        </g>
    </g>
</svg>